<?xml version="1.0" encoding="UTF-8" standalone="no"?>
<svg
   width="1433"
   height="351.83301"
   version="1.1"
   id="svg1"
   sodipodi:docname="forge_structural_logo_svg.svg"
   inkscape:version="1.4.3 (0d15f75, 2025-12-25)"
   xmlns:inkscape="http://www.inkscape.org/namespaces/inkscape"
   xmlns:sodipodi="http://sodipodi.sourceforge.net/DTD/sodipodi-0.dtd"
   xmlns="http://www.w3.org/2000/svg"
   xmlns:svg="http://www.w3.org/2000/svg">
  <defs
     id="defs1" />
  <sodipodi:namedview
     id="namedview1"
     pagecolor="#ffffff"
     bordercolor="#000000"
     borderopacity="0.25"
     inkscape:showpageshadow="2"
     inkscape:pageopacity="0.0"
     inkscape:pagecheckerboard="0"
     inkscape:deskcolor="#d1d1d1"
     inkscape:zoom="1.0360767"
     inkscape:cx="680.93414"
     inkscape:cy="183.8667"
     inkscape:window-width="2880"
     inkscape:window-height="1694"
     inkscape:window-x="6709"
     inkscape:window-y="-11"
     inkscape:window-maximized="1"
     inkscape:current-layer="svg1" />
  <path
     style="fill:#2a7e9e;fill-opacity:1;stroke:none;stroke-width:0.9"
     d="m 191.35,301.84135 0.3249,1.35 0.8748,1.3248 1.5255,1.4751 0.8748,0.7002 1.8,1.5003 0.9,0.7992 1.8,1.5003 0.9,0.7002 1.8,1.5246 0.9,0.8505 1.7496,1.7244 1.8504,1.8504 h -6.3 v 17.1 h 1.8504 0.9 l 1.7496,-0.0747 0.9,-0.1251 0.9,-0.1755 1.8,-0.5247 0.9,-0.2997 1.8,-0.6003 7.2,-2.4003 10.8,-3.6 3.6,-1.1997 1.8,-0.6003 0.9,-0.2997 1.8,-0.5499 1.8,-0.5004 0.9,-0.2745 1.8,-0.8253 0.9,-0.4995 1.8,-0.8757 0.9,-0.3249 0.9,-0.2745 1.8,-0.3753 0.9,-0.1746 0.9,-0.2007 1.8,-0.5247 0.9,-0.2997 1.8,-0.6003 1.8,-0.5499 1.8,-0.5004 0.9,-0.2493 0.9,-0.3753 0.9,-0.3501 0.9,-0.45 1.8,-0.7002 0.9,-0.225 1.8,-0.45 0.9,-0.2997 1.8,-0.7002 0.9,-0.2997 1.8,-0.45 0.8496,-0.1998 1.4004,-0.5256 1.35,-0.8748 v -6.3 l -1.35,-0.225 -1.4004,-0.3996 -1.7496,-0.6255 -0.9,-0.3753 -0.9,-0.3249 -0.9,-0.3501 -1.8,-0.5247 -0.9,-0.225 -1.8,-0.5499 -1.8,-0.6003 -0.9,-0.2997 -1.8,-0.5499 -0.9,-0.225 -0.9,-0.2502 -0.9,-0.1998 -0.9,-0.225 -0.9,-0.1755 -1.8,-0.3744 -0.9,-0.225 -0.9,-0.3249 -1.8,-0.6255 -0.9,-0.225 -1.8,-0.45 -0.9,-0.2997 -1.8,-0.7254 -1.8,-0.6246 -0.9,-0.225 -0.9,-0.225 -1.8,-0.2997 -1.8,-0.2502 -0.9,-0.1755 -0.9,-0.2493 -1.8,-0.6255 -0.9,-0.3753 -1.8,-0.6246 -1.8,-0.1746 -1.8,0.2997 -1.8,0.45 -0.9,0.225 -0.9,0.2745 -1.8,0.5508 -0.9,0.2745 -1.8,0.4752 -0.9,0.225 -0.9,0.2745 -1.8,0.5508 -0.9,0.2745 -0.9,0.225 -1.8,0.4752 -1.8,0.5499 -1.8,0.6003 -2.7,0.9 -0.9,0.2997 -0.9,0.2754 -0.9,0.2745 -1.8,0.4752 -0.9,0.1998 -0.9,0.2502 -0.9,0.1998 -1.8,0.5247 -0.9,0.3501 -0.8496,0.3006 -1.4004,0.4995 z"
     id="path25" />
  <path
     style="fill:#2a7e9e;fill-opacity:1;stroke:none;stroke-width:0.9"
     d="m 1304.65,260.44135 v 5.4 h 1.854 0.9 1.746 1.8 3.6 0.9 0.9 3.6 0.9 3.6 0.9 0.9 0.9 0.9 7.2 3.6 3.6 2.7 0.9 3.6 0.9 0.9 0.9 1.8 1.746 0.9 1.854 v -5.4 h -1.35 -1.404 -0.846 -0.9 -3.6 -1.8 -1.8 -0.9 -1.8 -0.9 -7.2 -3.6 -4.5 -0.9 -1.8 -1.8 -0.9 -7.2 -3.6 -3.6 -0.846 -1.404 -1.35"
     id="path24" />
  <path
     style="fill:#2a7e9e;fill-opacity:1;stroke:none;stroke-width:0.9"
     d="m 492.85,260.44135 v 5.4 h 3.6 4.5 9 4.5 7.2 2.7 3.6 4.5 3.6 8.0496 2.7504 v -5.4 h -11.7 -1.8 -3.6 -0.9 -7.2 -28.8"
     id="path23" />
  <path
     style="fill:#2a7e9e;fill-opacity:1;stroke:none;stroke-width:0.9"
     d="m 1238.05,242.44135 v 39.6 h 1.854 0.9 0.846 0.9 0.9 1.8 3.6 0.9 0.9 0.9 0.9 1.8 0.9 1.8 3.6 1.8 0.846 0.9 1.854 v -7.2 h -1.854 -0.9 -1.746 -3.6 -0.9 -0.9 -0.9 -3.6 -0.9 -0.9 -1.746 -1.854 v -1.35 -31.05 h -3.6 -1.746 -0.9 -1.854"
     id="path22" />
  <path
     style="fill:#2a7e9e;fill-opacity:1;stroke:none;stroke-width:0.9"
     d="m 1175.05,242.44135 -0.45,1.35 -0.297,0.5004 -0.378,0.9 -0.477,0.8496 -0.873,1.8 -0.378,0.9 -0.396,0.9 -0.702,1.8 -0.396,0.9 -0.378,0.9 -0.477,0.9 -0.396,0.9 -0.504,0.9 -0.873,1.8 -0.378,0.9 -0.396,0.9 -0.702,1.8 -0.396,0.9 -0.378,0.9 -0.477,0.9 -0.396,0.9 -0.504,0.9 -0.873,1.8 -0.378,0.9 -0.396,0.9 -0.702,1.8 -0.774,1.8 -0.477,0.9 -0.396,0.9 -0.477,0.9 -0.774,1.8 -0.63,1.7496 -0.243,0.9 -0.153,0.5004 -0.225,1.35 h 3.6 2.646 1.854 l 0.9,-1.35 0.198,-0.5004 0.504,-0.9 0.747,-1.7496 0.63,-1.7496 0.396,-1.4004 0.225,-1.35 h 3.6 0.9 3.6 0.9 3.6 0.9 2.7 0.846 0.9 1.854 l 0.252,1.35 0.171,0.5004 0.648,1.7496 0.378,0.9 0.675,1.7496 0.423,0.9 0.18,0.5004 0.873,1.35 h 1.854 0.9 0.846 2.646 1.854 l -0.252,-1.35 -0.171,-0.5004 -0.648,-1.7496 -0.378,-0.9 -0.702,-1.8 -0.774,-1.8 -0.477,-0.9 -0.873,-1.8 -0.378,-0.9 -0.396,-0.9 -0.702,-1.8 -0.774,-1.8 -0.477,-0.9 -0.873,-1.8 -0.774,-1.8 -0.702,-1.8 -0.774,-1.8 -0.45,-0.9 -0.774,-1.8 -0.702,-1.8 -0.774,-1.8 -0.477,-0.9 -0.873,-1.8 -0.378,-0.9 -0.396,-0.9 -0.675,-1.7496 -0.423,-0.9 -0.18,-0.5004 -0.873,-1.35 h -1.854 -0.9 -0.846 -1.8 -0.846 -0.9 -1.854"
     id="path21" />
  <path
     style="fill:#ffffff;fill-opacity:1;stroke:none;stroke-width:0.9"
     d="m 1180.45,252.34135 0.396,1.35 0.207,0.5004 0.648,1.7496 0.774,1.8 0.45,0.9 0.774,1.8 0.702,1.8 0.378,0.9 0.648,1.7496 0.171,0.5004 0.252,1.35 h -1.854 -2.646 -3.6 -0.9 -0.846 -1.404 -1.35 l 0.225,-1.35 0.153,-0.5004 0.243,-0.9 0.63,-1.7496 0.774,-1.8 0.477,-0.9 0.396,-0.9 0.477,-0.9 0.378,-0.9 0.396,-0.9 0.648,-1.7496 0.207,-0.5004 0.396,-1.35 h 1.8"
     id="path20" />
  <path
     style="fill:#2a7e9e;fill-opacity:1;stroke:none;stroke-width:0.9"
     d="m 1088.65,242.44135 v 3.6 36 h 2.754 1.746 0.846 2.754 v -12.6 h 2.754 0.846 0.9 0.9 1.746 0.9 1.854 l 0.297,1.35 0.279,0.5004 0.396,0.9 0.999,1.7496 0.576,0.9 0.549,0.9 0.657,0.9 1.323,1.8 0.675,0.8748 1.521,1.5255 0.855,0.5499 0.873,0.3501 1.8,0.2745 1.8,0.0252 h 1.746 0.9 1.854 l -0.297,-1.125 -0.279,-0.3753 -0.423,-0.6993 -1.098,-1.4751 -1.224,-1.7253 -0.63,-0.9 -1.323,-1.8 -0.702,-0.9 -0.648,-0.9 -0.648,-0.9 -0.801,-1.8 0.027,-0.8748 0.972,-1.6254 1.602,-1.4499 1.494,-1.5246 0.63,-0.8505 0.972,-1.7748 0.297,-0.9 0.18,-0.9 0.072,-0.9 0.027,-1.8 v -1.8 -0.9 l -0.072,-1.8 -0.378,-1.8 -0.396,-0.9 -0.504,-0.9 -1.422,-1.7748 -0.855,-0.8505 -1.773,-1.4247 -1.8,-0.9 -0.9,-0.2502 -0.9,-0.1998 -1.8,-0.3501 -0.9,-0.1998 -1.8,-0.2754 -1.8,-0.0747 h -1.8 -3.6 -3.6 -3.6 -0.9 -1.746 -0.9 -1.854"
     id="path19" />
  <path
     style="fill:#ffffff;fill-opacity:1;stroke:none;stroke-width:0.9"
     d="m 1096.75,262.24135 v -1.35 -12.15 h 2.754 0.846 0.9 1.8 0.9 l 1.8,0.0252 0.9,0.0495 1.8,0.3006 0.9,0.2745 1.773,0.8253 1.53,1.3248 0.549,0.8253 0.549,1.7748 0.072,1.8 -0.045,0.9 -0.378,1.7253 -0.9,1.4994 -0.675,0.6255 -1.602,0.9747 -1.773,0.4752 -1.8,0.0999 h -1.8 -0.9 -1.8 -0.9 -2.646 -1.854"
     id="path18" />
  <path
     style="fill:#2a7e9e;fill-opacity:1;stroke:none;stroke-width:0.9"
     d="m 1013.05,242.44135 v 19.8 3.6 1.8 l 0.072,1.8 0.351,1.8 0.729,1.8 0.495,0.9 0.504,0.9 1.17,1.7253 1.377,1.4994 1.629,1.2501 1.773,1.0251 0.9,0.4248 1.8,0.6507 0.9,0.2493 1.8,0.3006 1.8,0.0747 h 0.9 0.9 1.8 1.8 l 1.8,-0.0747 1.8,-0.3006 1.8,-0.5499 0.9,-0.3501 1.8,-0.9 1.728,-1.1493 0.774,-0.6507 1.377,-1.4994 0.594,-0.8505 0.549,-0.8748 0.828,-1.8 0.45,-1.8 0.171,-0.9 0.378,-1.8 0.153,-0.9 0.126,-0.9 0.072,-1.8 v -0.9 -0.9 -1.8 -18.9 h -3.6 -1.746 -2.754 v 17.1 2.7 0.9 l -0.027,1.8 -0.045,0.9 -0.306,1.8 -0.27,0.9 -0.351,0.9 -1.08,1.7748 -0.72,0.8505 -1.701,1.4247 -0.9,0.5247 -1.8,0.8001 -0.9,0.2754 -1.8,0.2502 -1.8,-0.2502 -0.9,-0.2754 -0.9,-0.3501 -1.773,-0.9747 -1.602,-1.4247 -0.675,-0.8505 -0.522,-0.8748 -0.801,-1.8 -0.549,-1.8 -0.306,-1.8 -0.045,-0.9 -0.027,-1.8 v -0.9 -1.8 -17.1 h -3.6 -1.746 -0.9 -1.854"
     id="path17" />
  <path
     style="fill:#2a7e9e;fill-opacity:1;stroke:none;stroke-width:0.9"
     d="m 943.75,242.44135 v 6.3 h 7.2 0.9 1.746 0.9 1.854 v 2.7504 30.5496 h 1.854 0.9 1.746 0.846 2.754 v -33.3 h 2.754 7.092 2.754 v -6.3 h -1.854 -1.746 -0.9 -0.9 -0.9 -1.8 -0.9 -1.8 -3.6 -0.9 -1.8 -0.9 -3.6 -1.8 -0.9 -0.9 -3.6 -1.746 -2.754"
     id="path16" />
  <path
     style="fill:#2a7e9e;fill-opacity:1;stroke:none;stroke-width:0.9"
     d="m 907.75,276.64135 -0.099,-1.35 -0.549,-1.4004 -0.504,-0.7992 -1.125,-1.4004 -1.323,-1.35 h -1.8 l -1.854,1.6254 -0.9,0.6993 -1.746,1.0251 -1.8,0.8001 -0.9,0.3249 -1.8,0.5256 -0.9,0.1242 h -0.9 l -1.8,-0.3492 -1.8,-0.6507 -0.9,-0.4248 -0.9,-0.4752 -0.9,-0.5499 -1.728,-1.2501 -1.449,-1.4994 -0.549,-0.8505 -0.522,-0.8748 -0.729,-1.8 -0.198,-0.9 -0.153,-0.9 -0.072,-1.8 v -0.9 -0.9 -0.9 l 0.027,-0.9 0.252,-1.8 0.72,-1.8 0.549,-0.9 0.63,-0.8748 1.494,-1.6254 0.855,-0.7245 0.873,-0.6255 1.8,-0.9999 0.9,-0.3501 1.8,-0.5247 1.8,-0.2997 h 0.9 l 0.9,0.0999 0.9,0.1998 0.9,0.1998 1.8,0.5499 1.8,0.9 0.9,0.6003 1.8,1.0251 1.8,0.2745 0.9,-0.225 0.846,-0.3501 1.404,-0.7992 1.35,-0.9504 -0.099,-1.35 -0.549,-1.3248 -1.251,-1.4004 -1.701,-1.1502 -0.9,-0.4995 -0.9,-0.5247 -1.8,-0.8757 -1.8,-0.5994 -0.9,-0.1755 -0.9,-0.1251 -1.8,-0.0747 h -0.9 -0.9 -1.8 -1.8 -0.9 -0.9 l -1.8,0.0747 -0.9,0.1503 -0.9,0.1998 -1.8,0.7002 -0.9,0.4752 -0.9,0.4248 -1.8,1.0998 -0.9,0.7002 -0.9,0.7497 -1.728,1.7253 -1.449,1.8 -1.098,1.8 -0.423,0.9 -0.477,0.9 -0.702,1.8 -0.198,0.9 -0.153,0.9 -0.072,1.8 v 0.9 0.9 1.8 1.8 l 0.072,1.8 0.153,0.9 0.198,0.9 0.351,0.9 0.828,1.8 0.972,1.8 0.549,0.9 1.449,1.8 1.728,1.7253 1.8,1.4499 0.9,0.5499 0.9,0.5247 1.8,0.8001 0.9,0.3249 1.8,0.5499 1.8,0.3006 1.8,0.0747 h 0.9 1.8 1.8 0.9 l 1.8,-0.0747 0.9,-0.1251 1.8,-0.4248 1.8,-0.6255 0.9,-0.3996 0.9,-0.4005 1.8,-0.9999 1.746,-1.0998 0.504,-0.2997 1.35,-0.9504"
     id="path15" />
  <path
     style="fill:#2a7e9e;fill-opacity:1;stroke:none;stroke-width:0.9"
     d="m 797.05,242.44135 v 18 2.7 0.9 l 0.0252,1.8 0.0495,0.9 0.2754,1.8 0.225,0.9 0.4752,1.8 0.2493,0.9 0.3753,0.9 0.3753,0.9 1.0746,1.8 0.7002,0.9 0.7497,0.8748 0.8505,0.8505 1.7748,1.4247 0.9,0.5247 1.8,0.8001 1.8,0.5499 0.9,0.1755 0.9,0.1251 1.8,0.0747 h 0.9 0.9 1.8 1.8 0.9 l 1.8,-0.0747 1.8,-0.3501 0.9,-0.3501 0.9,-0.3753 0.9,-0.5247 0.9,-0.5499 1.773,-1.4499 0.855,-0.8505 1.449,-1.7748 1.098,-1.8 0.423,-0.9 0.477,-0.9 0.351,-0.9 0.351,-0.9 0.351,-1.8 0.045,-0.9 0.027,-0.9 v -1.8 -3.6 -9 -9.9 h -3.6 -4.5 v 7.2 9 2.7 0.9 l -0.0252,1.8 -0.0495,0.9 -0.3006,1.8 -0.5499,1.8 -0.3501,0.9 -0.9747,1.7748 -0.675,0.8505 -1.6002,1.4247 -1.7748,0.9747 -0.9,0.3501 -1.8,0.4752 h -1.8 l -0.9,-0.1998 -1.8,-0.6255 -1.7748,-0.9747 -0.8505,-0.675 -1.4247,-1.6002 -0.5247,-0.8748 -0.8001,-1.8 -0.5499,-1.8 -0.3006,-1.8 -0.0495,-0.9 -0.0252,-1.8 v -0.9 -1.8 -17.1 h -3.6 -4.5"
     id="path14" />
  <path
     style="fill:#2a7e9e;fill-opacity:1;stroke:none;stroke-width:0.9"
     d="m 725.05,242.44135 v 16.2 2.7 2.7 18 h 1.8504 0.9 0.8496 4.5 v -12.6 h 1.8504 0.9 1.7496 l 1.8,0.0999 1.7748,0.5499 1.6254,1.2501 0.7245,0.8253 0.6507,0.8748 1.2249,1.8 1.1997,1.8 1.2501,1.8 1.2501,1.7496 0.4248,0.5004 0.675,1.35 h 9 l -0.2502,-1.35 -0.5994,-1.4004 -0.4752,-0.8496 -1.2501,-1.8 -0.675,-0.9 -0.6255,-0.9 -1.2492,-1.8 -0.6255,-0.9 -1.2249,-1.7496 -0.5004,-0.9 -0.2997,-0.5004 -0.3249,-1.35 1.35,-0.4752 0.5004,-0.3501 0.8748,-0.5247 1.5498,-1.4247 0.675,-0.8505 0.9747,-1.7748 0.6507,-1.8 0.2493,-0.9 0.3006,-1.8 0.0495,-0.9 0.0252,-1.8 -0.0747,-1.8 -0.3006,-1.8 -0.6246,-1.8 -1.0755,-1.8 -1.5498,-1.7253 -1.7748,-1.4499 -0.9,-0.5499 -0.9,-0.5247 -0.9,-0.3753 -0.9,-0.3501 -1.8,-0.3501 -0.9,-0.0495 -1.8,-0.0252 h -0.9 -2.7 -7.2 -0.9 -2.7 -5.4"
     id="path13" />
  <path
     style="fill:#ffffff;fill-opacity:1;stroke:none;stroke-width:0.9"
     d="m 733.15,262.24135 v -5.4 -8.1 h 3.6 1.8 1.8 l 1.8,0.0747 0.9,0.1251 1.8,0.3753 1.7748,0.5499 0.8505,0.3996 1.4247,1.2753 0.9,1.7001 0.3753,1.8 0.0243,0.9 -0.0243,0.9 -0.3753,1.7748 -0.9,1.6002 -1.4247,1.1754 -1.7253,0.6246 -0.9,0.1503 -1.8,0.0747 h -0.9 -0.9 -1.8 -1.8 -4.5"
     id="path12" />
  <path
     style="fill:#2a7e9e;fill-opacity:1;stroke:none;stroke-width:0.9"
     d="m 653.95,242.44135 v 6.3 h 3.6 9 v 33.3 h 3.6 4.5 v -5.4 -27.9 h 3.6 3.6 5.4 v -6.3 h -2.7504 -3.5496 -4.5 -1.8 -2.7 -3.6 -1.8 -0.9 -1.8 -2.7 -7.2"
     id="path11" />
  <path
     style="fill:#2a7e9e;fill-opacity:1;stroke:none;stroke-width:0.9"
     d="m 590.95,270.34135 -1.3248,0.7002 -1.2006,1.1997 -1.125,1.6497 -0.5994,1.4004 -0.2502,1.35 1.35,1.125 0.5004,0.3501 1.7496,1.1502 1.8,0.9243 0.9,0.3753 0.9,0.4005 1.8,0.6498 0.9,0.1998 0.9,0.1503 1.8,0.0747 h 0.9 0.9 1.8 1.8 0.9 l 1.8,-0.0747 0.9,-0.1251 1.8,-0.4248 1.8,-0.6255 0.9,-0.3996 0.9,-0.4005 1.7253,-1.0746 0.7497,-0.7002 0.675,-0.7497 0.9252,-1.7253 0.5499,-1.8 0.1998,-0.9 0.225,-0.9 0.2754,-1.8 v -1.8 l -0.1503,-0.9 -0.225,-0.9 -0.3996,-0.9 -1.1754,-1.7748 -0.7497,-0.8505 -1.7253,-1.4499 -0.9,-0.5499 -0.9,-0.5247 -1.8,-0.7506 -0.9,-0.2493 -1.8,-0.4752 -1.8,-0.45 -0.9,-0.2502 -1.8,-0.45 -1.8,-0.4752 -0.9,-0.2745 -1.7748,-0.9252 -0.8253,-0.675 -1.1502,-1.6002 v -1.7748 l 0.4752,-0.8748 0.675,-0.8253 1.7001,-1.2501 1.8,-0.5247 1.8,0.0747 1.8,0.3753 0.9,0.1998 1.8,0.4752 1.8,0.6246 1.7496,0.8001 0.9,0.3753 0.5004,0.2502 1.35,0.2997 0.6246,-1.35 0.3258,-0.5004 0.9243,-1.6992 0.5751,-1.4004 0.2502,-1.35 -1.35,-0.9 -0.5004,-0.1998 -0.9,-0.5004 -0.8496,-0.3501 -1.8,-0.7245 -1.8,-0.5499 -0.9,-0.1755 -0.9,-0.1251 -1.8,-0.0747 h -0.9 -0.9 -1.8 -2.7 -0.9 l -1.8,0.0747 -1.8,0.3753 -0.9,0.3753 -0.9,0.45 -1.7253,1.1493 -1.4499,1.3752 -0.5499,0.7749 -0.5247,0.8505 -0.7254,1.7748 -0.1998,0.9 -0.1503,0.9 -0.0747,1.8 v 0.9 l 0.0747,1.8 0.1503,0.9 0.225,0.9 0.9,1.7748 0.675,0.8505 1.6002,1.4499 0.8748,0.5499 1.8,0.9747 0.9,0.4752 1.8,0.7002 0.9,0.225 1.8,0.3744 1.8,0.4005 1.8,0.45 0.9,0.225 1.8,0.6498 0.8748,0.4752 1.5255,1.3248 0.5247,0.8253 0.2754,1.7748 -0.8001,1.7001 -1.5255,1.2753 -1.7748,0.7245 -0.9,0.225 -0.9,0.1998 -1.8,0.0999 -0.9,-0.1242 -0.9,-0.225 -1.8,-0.5751 -1.8,-0.675 -1.8,-0.9 -1.7496,-1.1502 -0.5004,-0.3501 -1.35,-1.125"
     id="path10" />
  <path
     style="fill:#000000;fill-opacity:1;stroke:none;stroke-width:0.9"
     d="m 1256.05,91.24135 -0.9,0.9 v 7.2 0.9 7.2 17.1 1.8 4.5 11.7 52.2 h 1.35 1.404 1.746 1.8 0.9 7.2 0.9 1.8 0.9 0.9 3.6 0.9 28.8 3.6 0.9 1.8 0.9 3.6 2.7 1.8 1.8 2.7 7.2 0.9 0.9 3.6 0.9 3.6 1.8 1.8 0.9 3.6 0.9 2.7 1.8 1.746 1.854 v -12.6 h -1.854 -0.9 -0.846 -1.8 -0.9 -1.8 -0.9 -1.8 -3.6 -1.8 -0.9 -1.8 -0.9 -3.6 -7.2 -0.9 -1.8 -0.9 -1.8 -0.9 -3.6 -0.9 -3.6 -1.8 -0.9 -1.8 -0.9 -0.9 -1.8 -3.6 -0.9 -0.9 -0.9 -3.6 -7.2 -3.6 -4.5 -1.8 -0.9 -1.8 -0.9 -3.6 -0.9 -3.6 v -33.3 h 1.35 1.404 0.846 2.7 3.6 0.9 2.7 3.6 1.8 3.6 3.6 0.9 0.9 0.9 3.6 7.2 0.9 3.6 0.9 1.8 3.6 28.8 v -1.35 -12.15 h -1.35 -1.404 -1.746 l -1.8,0.0252 -0.9,0.0495 -1.8,0.2754 -1.8,0.3501 -0.9,0.1251 -1.8,0.0747 h -0.9 -1.8 -4.5 -14.4 -2.7 -3.6 -0.9 -0.9 -0.9 -3.6 -0.9 -7.2 -4.5 -1.8 -0.9 -1.8 -0.9 -0.9 -1.8 -1.8 -0.9 -5.346 -1.854 l -0.9,-0.9 v -1.8504 -7.1496 -1.8 -7.2 -0.9 -0.9 -3.6 -7.2 h 1.35 1.404 0.846 2.7 1.8 3.6 0.9 0.9 3.6 0.9 3.6 1.8 2.7 1.8 2.7 1.8 7.2 7.2 3.6 2.7 1.8 0.9 14.4 3.6 0.9 1.8 1.8 0.9 7.2 1.746 1.404 1.35 l 0.9,-0.9 v -2.7504 -8.9496 l -0.9,-0.9 h -1.854 -0.9 -0.846 -0.9 -7.2 -0.9 -7.2 -0.9 -3.6 -3.6 -0.9 -1.8 -1.8 -1.8 -0.9 -7.2 -7.2 -3.6 -0.9 -1.8 -3.6 -0.9 -1.8 -1.8 -1.8 -0.9 -7.2 -3.6 -1.8 -0.9 -1.8 -0.9 -3.6 -0.9 -1.8 -7.2 -3.6 -1.746 -1.404 -1.35"
     id="path9" />
  <path
     style="fill:#000000;fill-opacity:1;stroke:none;stroke-width:0.9"
     d="m 1183.15,139.84135 h -1.854 -1.746 -0.9 -0.9 -3.6 -0.9 -0.9 -5.4 -1.8 -0.9 -1.8 -3.6 -0.9 -0.9 -3.6 -1.8 -7.2 -14.4 -0.9 -0.9 -2.646 -2.754 v 13.5 h 1.854 0.9 0.846 14.4 7.2 0.9 1.8 3.6 1.8 0.9 3.6 0.9 2.7 3.6 v 9 1.8 0.9 0.9 l -0.072,1.8 -0.279,1.8 -0.225,0.9 -0.477,1.8 -0.243,0.9 -0.756,1.8 -0.522,0.8748 -0.549,0.8505 -1.449,1.4994 -0.855,0.6507 -1.773,1.1493 -1.8,0.8505 -0.9,0.2745 -1.8,0.4752 -0.9,0.225 -1.8,0.2754 -0.9,0.0495 -1.8,0.0252 -1.8,0.0252 -0.9,0.0495 -1.8,0.2754 -0.9,0.1998 -1.8,0.2754 -0.9,0.0495 -1.8,0.0252 h -1.8 -0.9 -1.8 -0.9 -1.8 -0.9 -7.2 -1.8 -3.6 -0.9 -7.2 -1.8 -3.6 -0.9 -1.8 l -0.9,-0.0252 -0.9,-0.0495 -1.8,-0.2754 -0.9,-0.1998 -1.8,-0.2754 -0.9,-0.0495 -1.8,-0.0252 h -1.8 -0.9 l -1.8,-0.0747 -1.8,-0.3006 -0.9,-0.2493 -1.8,-0.6255 -0.9,-0.3996 -0.9,-0.3753 -0.9,-0.4752 -0.9,-0.4248 -1.773,-1.0998 -1.602,-1.4499 -0.702,-0.8505 -1.071,-1.7748 -0.405,-0.9 -0.396,-0.9 -0.324,-0.9 -0.549,-1.8 -0.306,-1.8 -0.072,-1.8 v -1.8 -2.7 -8.1 -25.2 -4.5 -1.8 l 0.072,-1.8 0.279,-1.8 0.225,-0.9 0.198,-0.9 0.549,-1.8 0.927,-1.8 0.675,-0.9 1.602,-1.7253 1.773,-1.4994 0.9,-0.6255 0.9,-0.5751 1.8,-0.9 1.8,-0.6246 0.9,-0.225 1.8,-0.45 0.9,-0.225 1.8,-0.2997 0.9,-0.1008 1.8,-0.2997 0.9,-0.1998 1.8,-0.2754 0.9,-0.0495 0.9,-0.0252 h 1.8 3.6 0.9 0.9 28.8 0.9 3.6 0.9 0.9 1.8 l 1.8,0.0252 0.9,0.0495 1.8,0.2754 0.9,0.1998 1.8,0.2754 0.9,0.0495 1.8,0.0999 1.8,0.3501 0.9,0.3249 1.8,0.7254 1.8,0.8253 0.9,0.4743 1.773,1.2006 0.855,0.7245 1.449,1.6254 0.549,0.8748 0.927,1.8 0.396,0.9 0.63,1.8 0.243,0.9 0.306,1.7496 0.045,0.9 0.027,1.8504 1.35,-0.0252 1.404,-0.1746 0.846,-0.1503 0.9,-0.225 0.9,-0.1998 1.8,-0.4752 1.8,-0.5499 1.8,-0.5499 0.846,-0.1998 0.9,-0.3006 0.504,-0.0747 1.35,-0.675 -0.225,-1.35 -0.126,-0.5004 -0.378,-1.7496 -0.342,-1.8 -0.207,-0.9 -0.243,-0.9 -0.576,-1.8 -0.63,-1.8 -0.351,-0.9 -0.9,-1.8 -0.549,-0.9 -1.251,-1.8 -0.72,-0.8748 -0.774,-0.8505 -1.728,-1.4994 -1.8,-1.2501 -1.8,-1.0755 -0.9,-0.4995 -0.9,-0.4005 -0.9,-0.3996 -0.9,-0.3249 -1.8,-0.6255 -1.8,-0.5751 -0.9,-0.2493 -0.9,-0.2007 -1.8,-0.3492 -1.8,-0.3753 -1.8,-0.2997 -0.9,-0.1008 -1.8,-0.2997 -0.9,-0.1998 -1.8,-0.2754 -0.9,-0.0495 -1.8,-0.0252 h -0.9 -1.8 -2.7 -2.7 -2.7 -1.8 -0.9 -1.8 -1.8 -0.9 -1.8 -3.6 -5.4 -1.8 -0.9 -3.6 -0.9 -1.8 -7.2 -3.6 -2.7 -0.9 l -1.8,0.0252 -0.9,0.0495 -1.8,0.2754 -0.9,0.1998 -1.8,0.2754 -1.8,0.1494 -1.8,0.2754 -0.9,0.225 -1.8,0.45 -0.9,0.225 -1.8,0.5751 -0.9,0.3249 -1.8,0.7749 -0.9,0.4752 -0.9,0.4248 -0.9,0.5247 -0.9,0.5004 -1.8,1.1745 -0.9,0.6507 -1.728,1.4994 -1.494,1.7253 -0.657,0.9 -1.17,1.8 -0.504,0.9 -0.495,0.9 -0.405,0.9 -0.396,0.9 -0.324,0.9 -0.63,1.8 -0.576,1.8 -0.243,0.9 -0.306,1.8 -0.099,1.8 -0.045,0.9 -0.279,1.8 -0.198,0.9 -0.279,1.8 -0.045,0.9 -0.027,0.9 v 1.8 0.9 4.5 2.7 13.5 11.7 2.7 0.9 l 0.027,1.8 0.045,0.9 0.279,1.8 0.198,0.9 0.297,1.8 0.108,0.9 0.297,1.8 0.423,1.8 0.279,0.9 0.243,0.9 0.351,0.9 0.729,1.8 0.828,1.8 0.468,0.9 1.206,1.8 1.494,1.8 1.728,1.7253 1.8,1.4994 1.8,1.2501 1.8,1.0755 0.9,0.4995 0.9,0.4005 0.9,0.3996 0.9,0.3249 1.8,0.6255 1.8,0.5751 0.9,0.2493 1.8,0.3006 1.8,0.0747 1.8,0.0252 0.9,0.0495 1.8,0.2754 0.9,0.1998 1.8,0.2754 0.9,0.0495 1.8,0.0252 h 0.9 1.8 0.9 2.7 3.6 0.9 0.9 1.8 2.7 0.9 7.2 14.4 0.9 3.6 3.6 0.9 0.9 1.8 0.9 l 1.8,-0.0252 0.9,-0.0495 1.8,-0.2754 0.9,-0.1998 1.8,-0.2754 0.9,-0.0495 1.8,-0.0252 0.9,-0.0252 0.9,-0.0495 1.8,-0.2754 0.9,-0.225 0.9,-0.1998 0.9,-0.2502 1.8,-0.45 0.9,-0.1998 0.9,-0.2754 0.9,-0.2493 1.8,-0.7506 0.9,-0.4995 1.8,-1.0755 1.8,-1.2501 1.773,-1.4994 0.855,-0.8505 1.449,-1.7748 0.549,-0.9 0.972,-1.8 0.477,-0.9 0.729,-1.8 0.522,-1.8 0.198,-0.9 0.225,-0.9 0.279,-1.8 0.072,-1.8 0.072,-1.8 0.279,-1.8 0.198,-0.9 0.279,-1.8 0.045,-0.9 0.027,-0.9 v -1.8 -5.4 -0.9 -0.9 -0.9 -14.4"
     id="path8" />
  <path
     style="fill:#000000;fill-opacity:1;stroke:none;stroke-width:0.9"
     d="m 873.55,91.24135 v 2.7504 2.6496 98.1 h 1.854 2.646 1.8 2.7 0.9 1.746 0.9 1.854 v -36 h 1.35 1.404 3.546 3.6 3.6 7.2 0.9 0.9 3.6 0.9 0.9 0.9 7.2 14.4 l 0.477,1.35 0.873,1.4004 1.422,1.7496 1.728,1.8 0.9,0.9 0.9,0.9 1.8,1.8 1.8,1.8 1.8,1.8 3.6,3.6 0.9,0.9 1.8,1.8 1.8,1.8 1.728,1.8 1.521,1.7253 0.675,0.7749 1.35,1.4499 0.702,0.7497 0.675,0.7749 1.521,1.7253 1.728,1.8 1.8,1.7001 0.9,0.7002 0.9,0.5499 0.9,0.3501 0.9,0.1998 1.8,0.0999 h 0.9 0.9 1.8 0.9 1.8 3.6 3.6 0.846 0.9 1.854 l -0.702,-1.35 -0.477,-0.5004 -0.72,-0.9 -0.828,-0.8496 -1.746,-1.8 -0.855,-0.9 -1.521,-1.8 -0.702,-0.9 -1.521,-1.8 -0.855,-0.9 -1.773,-1.8 -0.9,-0.9 -1.8,-1.8 -1.8,-1.8 -5.4,-5.4 -1.8,-1.8 -0.9,-0.9 -1.8,-1.8 -1.8,-1.8 -3.546,-3.5496 -0.9,-0.9 -1.854,-1.8504 1.854,-0.0747 1.746,-0.2754 0.9,-0.1998 1.8,-0.2754 1.8,-0.1494 1.8,-0.2754 1.8,-0.3753 1.8,-0.3744 0.9,-0.225 0.9,-0.3249 1.8,-0.7254 1.8,-0.8253 0.9,-0.4743 1.8,-1.2006 0.9,-0.7245 1.728,-1.6254 1.449,-1.7748 0.549,-0.9 0.522,-0.9 0.801,-1.8 0.63,-1.8 0.27,-0.9 0.225,-0.9 0.45,-1.8 0.225,-0.9 0.279,-1.8 0.045,-0.9 0.027,-1.8 v -1.8 -2.7 -9.9 -2.7 -0.9 l -0.027,-1.8 -0.045,-0.9 -0.279,-1.8 -0.225,-0.9 -0.477,-1.8 -0.243,-0.9 -0.729,-1.8 -0.477,-0.9 -0.423,-0.9 -1.098,-1.8 -0.702,-0.9 -1.602,-1.7748 -0.873,-0.8505 -1.8,-1.4994 -0.9,-0.6255 -0.9,-0.5751 -1.8,-0.9243 -0.9,-0.3753 -1.8,-0.7254 -0.9,-0.3501 -0.9,-0.2493 -0.9,-0.2754 -0.9,-0.1998 -1.8,-0.45 -0.9,-0.2502 -0.9,-0.1998 -0.9,-0.225 -1.8,-0.2754 -0.9,-0.0495 -0.9,-0.0252 h -1.8 l -1.8,-0.0252 -0.9,-0.0495 -1.8,-0.2754 -0.9,-0.1998 -1.8,-0.2754 -0.9,-0.0495 -1.8,-0.0252 h -1.8 -7.2 -3.6 -0.9 -0.9 -7.2 -0.9 -1.8 -7.2 -7.2 -1.8 -0.9 -3.6 -0.9 -0.9 -1.8 -0.9 -0.9 -1.8 -3.6 -0.9 -0.9 -3.6 -7.2 -0.9 -0.9 -0.9 -1.746 -2.754"
     id="path7" />
  <path
     style="fill:#ffffff;fill-opacity:1;stroke:none;stroke-width:0.9"
     d="m 887.95,146.14135 v -1.35 -0.5004 -39.5496 h 3.6 4.5 7.2 0.9 0.9 1.8 2.7 7.2 7.2 0.9 0.9 14.4 3.6 0.9 4.5 3.6 1.8 1.8 0.9 l 1.8,0.0252 0.9,0.0495 1.8,0.3006 0.9,0.2493 1.8,0.6255 0.9,0.3996 0.9,0.4005 1.8,1.0746 0.873,0.7002 1.602,1.6002 0.675,0.8748 0.972,1.8 0.657,1.8 0.243,0.9 0.306,1.8 0.045,0.9 0.027,1.8 v 0.9 1.8 4.5 1.8 l -0.072,1.8 -0.126,0.9 -0.153,0.9 -0.378,1.8 -0.342,1.8 -0.207,0.9 -0.621,1.8 -0.477,0.9 -1.323,1.7253 -1.701,1.4499 -1.8,1.0746 -0.9,0.3753 -0.9,0.3753 -0.9,0.2493 -1.8,0.4752 -0.9,0.225 -1.8,0.2754 -0.9,0.0495 -1.8,0.0252 h -0.9 -2.7 -0.9 -5.4 -7.2 -0.9 -3.6 -3.6 -0.9 -7.2 -0.9 -14.4 -7.2 -3.6 -3.6 -0.9 -0.9 -3.6"
     id="path6" />
  <path
     style="fill:#000000;fill-opacity:1;stroke:none;stroke-width:0.9"
     d="m 701.65,91.59145 -0.9,0.1998 -1.8,0.2754 -0.9,0.0495 -1.8,0.0999 -1.8,0.2754 -0.9,0.225 -1.8,0.45 -0.9,0.225 -1.8,0.5751 -0.9,0.3249 -1.8,0.7749 -0.9,0.4752 -0.9,0.4248 -0.9,0.5499 -0.9,0.5247 -1.7748,1.2753 -1.6254,1.3752 -0.7497,0.7497 -1.4247,1.6254 -1.4256,1.7748 -0.6498,0.9 -0.9747,1.8 -0.675,1.8 -0.3006,0.9 -0.5751,1.8 -0.4995,1.8 -0.2502,0.9 -0.1998,0.9 -0.225,0.9 -0.2754,1.8 -0.0495,0.9 -0.0252,1.8 v 1.8 8.1 20.7 10.8 4.5 1.8 l 0.0252,0.9 0.0495,0.9 0.2754,1.8 0.1998,0.9 0.1755,0.9 0.3492,1.8 0.2007,0.9 0.2493,0.9 0.6255,1.8 0.7749,1.8 0.4752,0.9 0.4248,0.9 1.0998,1.8 1.4499,1.8 0.8505,0.8748 0.8748,0.8505 1.8,1.4994 1.8,1.2501 0.9,0.5751 0.9,0.5004 0.9,0.4995 1.8,0.8001 0.9,0.3249 1.8,0.5499 1.8,0.3249 0.9,0.1008 1.8,0.2997 1.8,0.3501 0.9,0.1251 1.8,0.1494 1.8,0.2754 0.9,0.1998 1.8,0.2754 1.8,0.0747 h 0.9 1.8 6.3 7.2 4.5 2.7 1.8 0.9 0.9 1.8 4.5 1.8 4.5 7.2 1.8 1.8 1.8 0.9 1.8 1.8 l 1.8,-0.0252 0.9,-0.0495 1.8,-0.2754 0.9,-0.1998 1.8,-0.2754 1.8,-0.0747 1.8,-0.0747 1.8,-0.2754 0.9,-0.225 1.8,-0.45 1.8,-0.45 0.9,-0.1998 0.9,-0.2754 0.9,-0.2493 0.9,-0.3753 0.9,-0.3501 0.9,-0.4752 1.8,-0.9495 0.9,-0.5004 0.9,-0.5751 0.9,-0.5994 1.7253,-1.3752 0.7749,-0.7749 0.7245,-0.8505 1.2501,-1.7748 1.0755,-1.8 0.4995,-0.9 0.8001,-1.8 0.3249,-0.9 0.6255,-1.8 0.2997,-0.9 0.5247,-1.8 0.3006,-1.8 0.0495,-0.9 0.0252,-0.9 v -1.8 -6.3 -0.9 -0.9 -26.1 -10.8 -2.7 -1.8 l -0.0252,-1.8 -0.0495,-0.9 -0.2754,-1.8 -0.225,-0.9 -0.45,-1.8 -0.225,-0.9 -0.2745,-0.9 -0.6255,-1.8 -0.8001,-1.8 -0.5247,-0.9 -0.5499,-0.9 -1.4499,-1.8 -0.8505,-0.9 -1.7748,-1.7748 -0.9,-0.8505 -1.8,-1.4499 -0.9,-0.5751 -1.8,-1.0746 -0.9,-0.5247 -1.8,-0.8757 -0.9,-0.3501 -1.8,-0.6246 -1.8,-0.5499 -0.9,-0.225 -1.8,-0.45 -0.9,-0.225 -1.8,-0.2754 -0.9,-0.0495 -1.8,-0.0999 -0.9,-0.1251 -1.8,-0.3501 -0.9,-0.1503 -0.9,-0.1251 -1.8,-0.0747 h -0.9 -0.9 -1.8 -0.9 -7.2 -0.9 -7.2 -3.6 -3.6 -3.6 -0.9 -4.5 -7.2 -2.7 -5.4 -3.6 -1.8 -0.9 l -1.8,0.0747 -1.8,0.2754"
     id="path5" />
  <path
     style="fill:#ffffff;fill-opacity:1;stroke:none;stroke-width:0.9"
     d="m 705.25,104.04115 0.9,-0.1251 1.8,-0.0747 h 1.8 1.8 3.6 3.6 3.6 0.9 9 7.2 0.9 3.6 5.4 5.4 1.8 0.9 l 1.8,0.0747 1.8,0.2754 0.9,0.1998 1.8,0.2754 1.8,0.0747 1.8,0.0747 1.8,0.2754 0.9,0.225 1.8,0.4752 0.9,0.2493 1.8,0.7254 0.9,0.4752 0.9,0.4248 1.7748,1.0998 1.6002,1.4499 1.2501,1.7253 0.5499,0.9 0.4248,0.9 0.8253,1.8 0.3501,0.9 0.1998,0.9 0.1503,0.9 0.0747,1.8 v 1.8 0.9 2.7 5.4 0.9 9.9 16.2 4.5 1.8 1.8 l -0.0252,0.9 -0.0495,0.9 -0.2754,1.8 -0.225,0.9 -0.4752,1.8 -0.2745,0.9 -0.9252,1.8 -1.4247,1.7748 -1.7253,1.6002 -1.8,1.2501 -0.9,0.5247 -1.8,0.7506 -0.9,0.2493 -1.8,0.4752 -0.9,0.225 -1.8,0.2754 -1.8,0.0747 -1.8,0.0747 -1.8,0.2754 -0.9,0.1998 -1.8,0.2754 -0.9,0.0495 -1.8,0.0252 h -0.9 -1.8 -0.9 -0.9 -1.8 -0.9 -4.5 -0.9 -7.2 -3.6 -2.7 -1.8 -7.2 -4.5 -3.6 -0.9 -0.9 -2.7 -1.8 l -1.8,-0.0252 -0.9,-0.0495 -1.8,-0.2754 -0.9,-0.1998 -1.8,-0.2997 -0.9,-0.1008 -1.8,-0.3249 -1.8,-0.5499 -1.8,-0.7245 -0.9,-0.4005 -1.8,-1.0746 -1.7253,-1.4499 -1.4499,-1.7253 -1.0746,-1.8 -0.4005,-0.9 -0.3996,-0.9 -0.6255,-1.8 -0.2493,-0.9 -0.3006,-1.8 -0.0495,-0.9 -0.0252,-1.8 v -0.9 -2.7 -9.9 -1.8 -0.9 -9 -14.4 -1.8 -0.9 l 0.0252,-1.8 0.0495,-0.9 0.3006,-1.8 0.5247,-1.8 0.2997,-0.9 0.3006,-0.9 0.675,-1.8 0.9747,-1.7748 0.675,-0.8505 1.6002,-1.4994 1.7748,-1.2006 1.8,-0.9243 0.9,-0.3753 1.8,-0.7254 0.9,-0.3249 1.8,-0.3501 1.8,-0.1494 1.8,-0.2754 1.8,-0.3501"
     id="path4" />
  <path
     style="fill:#000000;fill-opacity:1;stroke:none;stroke-width:0.9"
     d="m 501.85,91.24135 -0.9,0.9 v 7.2 1.8 0.9 1.8 90.9 h 5.4 4.5 5.4 v -41.4 h 6.3 5.4 9.9 7.2 4.5 5.4 0.9 5.4 0.9 1.8 7.2 0.9 0.9 4.5 2.7 3.6 4.5 0.9 2.7 3.6 v -3.6 -9.9 h -1.35 -4.95 -0.9 -7.2 -0.9 -9 -0.9 -3.6 -4.5 -28.8 -2.7 -3.6 -4.5 -2.7 -3.6 v -35.1 h 1.8504 3.5496 4.5 3.6 3.6 0.9 3.6 3.6 3.6 1.8 14.4 0.9 4.5 6.3 28.8 1.8 2.6496 2.7504 v -12.6 l -0.9,-0.9 h -2.7504 -4.4496 -1.8 -3.6 -2.7 -3.6 -0.9 -7.2 -4.5 -9 -5.4 -0.9 -1.8 -21.6 -7.2 -3.6 -7.2 -1.8 -1.8 -2.7 -4.5 -7.2"
     id="path3" />
  <path
     style="fill:#2a7e9e;fill-opacity:1;stroke:none;stroke-width:0.9"
     d="m 406.45,28.24135 v 5.4 5.4 3.6 2.7 5.4 1.8 0.9 7.2 3.6 7.2 20.7 1.8 7.2 4.5 6.3 33.3 180.9 h 4.5 v -12.6 -14.4 -1.8 -1.8 -4.5 -7.2 -248.4 -7.2 h -4.5"
     id="path2" />
  <path
     style="fill:#2a7e9e;fill-opacity:1;stroke:none;stroke-width:0.9"
     d="m 71.65,73.24135 v 6.3 l 0.9,0.9 h 2.7504 1.7496 l 1.8,0.0252 0.9,0.0495 1.8,0.2754 0.9,0.1998 1.8,0.2754 0.9,0.0495 1.8,0.0252 0.9,0.0252 0.9,0.0495 1.8,0.2754 1.8,0.3501 0.9,0.1251 1.8,0.1494 0.9,0.1251 1.8,0.3501 1.8,0.2754 0.9,0.0495 1.8,0.0252 h 1.8 l 0.9,0.0252 0.9,0.0495 1.8,0.2754 0.9,0.1998 0.9,0.1755 1.8,0.3744 0.9,0.2502 1.8,0.9 1.7748,1.4247 0.8505,0.8505 1.4247,1.7748 0.9,1.8 0.3753,1.8 0.0747,1.8 v 0.9 1.8 4.5 9 6.3 11.7 104.4 30.6 4.5 1.8 0.9 l -0.0747,1.8 -0.3753,1.8 -0.9,1.8 -1.4247,1.7001 -0.8505,0.7002 -0.8748,0.5751 -1.8,0.7245 -1.8,0.45 -1.8,0.3501 -1.8,0.3501 -0.9,0.1998 -1.8,0.2997 -0.9,0.1008 -1.8,0.2997 -1.8,0.4248 -1.8,0.45 -0.9,0.225 -1.8,0.2754 -1.8,0.1494 -1.8,0.2754 -0.9,0.1998 -0.9,0.1755 -1.8,0.3492 -0.9,0.1755 -0.9,0.1998 -1.8,0.2997 -0.9,0.1008 -1.8,0.2997 -0.9,0.225 -0.9,0.1998 -0.9,0.2502 -0.8496,0.1998 -1.4004,0.3501 -1.35,0.225 v 8.1 l 1.35,0.0747 1.4004,0.3006 0.8496,0.2493 0.9,0.2754 1.8,0.5247 0.9,0.2007 1.8,0.3492 1.8,0.45 1.8,0.6255 0.9,0.3753 0.9,0.3492 0.9,0.3753 1.8,0.6255 0.9,0.2745 1.8,0.5499 0.9,0.3249 0.9,0.4005 1.8,0.8001 1.8,0.5994 0.9,0.2007 1.8,0.3492 0.9,0.2007 1.8,0.5247 0.9,0.2997 1.8,0.6003 1.8,0.6003 1.8,0.6498 0.9,0.3753 0.9,0.3492 1.8,0.7002 1.8,0.5751 0.9,0.225 0.9,0.2754 0.9,0.2493 0.9,0.3501 0.9,0.3249 0.9,0.3753 1.8,0.6255 1.8,0.45 1.8,0.3492 0.9,0.2007 1.8,0.5247 0.9,0.2997 1.8,0.6255 0.9,0.3249 0.9,0.3753 0.9,0.3492 1.8,0.7002 1.8,0.5751 0.9,0.225 1.8,0.4752 1.8,0.5751 1.8,0.7002 0.9,0.3249 0.9,0.3501 1.8,0.5499 0.9,0.2493 1.8,0.675 0.9,0.3753 1.8,0.6498 1.8,0.6003 3.6,1.1997 6.3,2.1006 2.7,0.9 0.9,0.2997 1.8,0.5499 1.8,0.4752 0.9,0.225 1.8,0.5499 1.8,0.6003 2.7,0.9 1.8,0.5994 1.8,0.6003 1.8,0.5247 0.8496,0.1755 1.4004,0.1746 1.35,0.0252 v -17.1 l -1.35,-0.45 -0.5004,-0.2997 -0.9,-0.3753 -0.8496,-0.4752 -0.9,-0.3996 -0.9,-0.4752 -1.8,-0.7749 -1.8,-0.7002 -1.8,-0.7749 -1.8,-0.8748 -0.9,-0.5004 -0.9,-0.4248 -1.8,-1.0998 -0.9,-0.7002 -0.9,-0.7497 -1.7748,-1.7253 -0.8505,-0.9 -1.4247,-1.8 -0.9,-1.8 -0.225,-0.9 -0.1998,-1.8 -0.0252,-1.8 v -0.9 -0.9 -2.7 -6.3 -34.2 -2.7 -110.7 -12.6 -25.2 -9 -1.8 -0.9 l 0.0747,-1.8 0.3501,-1.8 0.3501,-0.9 0.3753,-0.9 0.5247,-0.9 0.5499,-0.9 1.4499,-1.7748 0.8505,-0.8505 1.7748,-1.4247 1.8,-0.9252 1.8,-0.5751 0.9,-0.2493 0.9,-0.3501 0.9,-0.3249 0.9,-0.4005 1.8,-0.8001 1.8,-0.8496 0.9,-0.4005 0.9,-0.3501 0.9,-0.3249 1.8,-0.5994 2.7,-0.9 0.9,-0.3006 0.9,-0.3249 0.9,-0.3249 0.9,-0.3753 1.8,-0.7245 1.8,-0.6498 0.9,-0.3006 1.8,-0.5994 0.9,-0.3006 0.9,-0.3249 0.9,-0.3249 0.9,-0.3753 1.8,-0.7245 1.8,-0.6255 1.8,-0.4995 0.9,-0.2502 1.8,-0.4995 1.8,-0.6255 1.8,-0.7245 0.9,-0.3753 0.9,-0.3249 0.9,-0.3249 0.9,-0.3006 1.7496,-0.6246 0.9,-0.4248 0.5004,-0.1755 1.35,-0.8748 v -3.6 -4.5 h 2.7 v 9 l 0.9,0.9 1.35,0.0747 1.4004,0.3006 1.7496,0.5994 1.8,0.8001 0.9,0.4005 0.9,0.3249 1.8,0.5499 0.9,0.2745 1.8,0.5508 0.9,0.2745 0.9,0.225 1.8,0.5247 0.9,0.3501 0.9,0.3249 1.8,0.7758 0.9,0.4248 1.8,0.8496 0.9,0.4005 0.9,0.3501 1.8,0.6246 0.9,0.2754 0.9,0.2745 0.9,0.2502 1.8,0.6246 1.8,0.7506 0.9,0.3249 1.8,0.5499 1.8,0.5499 0.9,0.2997 0.9,0.3006 1.8,0.6498 0.9,0.3753 0.9,0.3492 1.7496,0.7254 0.5004,0.1746 1.35,0.7254 -1.35,0.7254 -0.5004,0.1746 -1.7496,0.7254 -0.9,0.3492 -0.9,0.3753 -1.8,0.6498 -0.9,0.3006 -0.9,0.3249 -0.9,0.3249 -1.8,0.7749 -0.9,0.4752 -0.9,0.3996 -0.9,0.4752 -1.8,0.7002 -0.9,0.225 -1.8,0.45 -0.9,0.2997 -0.9,0.3753 -1.8,0.8001 -0.9,0.3501 -0.9,0.3249 -0.9,0.2997 -1.8,0.6003 -0.9,0.3249 -0.9,0.3249 -1.8,0.7245 -0.9,0.3753 -1.8,0.6498 -0.9,0.3006 -1.8,0.6498 -0.9,0.3753 -1.8,0.7245 -1.8,0.6498 -0.9,0.3006 -1.8,0.6498 -0.9,0.3753 -1.8,0.7245 -0.9,0.3249 -0.9,0.3249 -0.9,0.3006 -1.8,0.5994 -0.9,0.3006 -0.9,0.3249 -0.9,0.3249 -0.9,0.3753 -1.8,0.7245 -1.8,0.6498 -0.9,0.3006 -1.8,0.5994 -0.9,0.3006 -1.8,0.6498 -0.9,0.3753 -1.8,0.7245 -1.8,0.6498 -0.9,0.3006 -1.8,0.6498 -1.8,0.7245 -0.9,0.3753 -1.8,0.7254 -1.7748,0.9747 -1.5255,1.4247 -0.5499,0.8505 -0.3501,0.8748 -0.1998,0.9 -0.0999,1.8 v 0.9 0.9 1.8 4.5 0.9 26.1 99.9 29.7 3.6 1.8 l 0.0252,1.8 0.0747,0.9 0.5499,1.8 1.2501,1.7001 1.7001,1.2249 0.9,0.2997 h 1.8 l 0.9,-0.1998 1.8,-0.45 1.8,-0.4995 0.9,-0.2754 1.8,-0.6003 0.9,-0.3249 0.9,-0.3249 0.9,-0.3753 1.8,-0.7245 1.8,-0.6498 0.9,-0.3006 1.8,-0.5994 2.7,-0.9 1.8,-0.6003 1.7496,-0.5751 0.9,-0.3501 0.5004,-0.1494 1.35,-0.7254 v -48.6 -8.1 -1.8 -0.9 l 0.0252,-1.8 0.0495,-0.9 0.2754,-1.8 0.225,-0.9 0.4752,-1.8 0.2493,-0.9 0.3753,-0.9 0.3753,-0.9 1.0746,-1.8 0.7002,-0.9 1.6002,-1.7748 0.8748,-0.8505 1.8,-1.4994 1.8,-1.1754 0.9,-0.45 1.8,-0.6498 0.9,-0.225 1.8,-0.45 0.9,-0.2754 0.9,-0.2745 1.8,-0.8253 0.9,-0.4995 1.8,-0.8757 0.9,-0.3501 1.8,-0.6246 1.8,-0.6003 1.8,-0.5751 0.9,-0.2745 1.8,-0.4752 0.9,-0.1998 0.8496,-0.225 0.9,-0.1503 0.5004,-0.1251 1.35,-0.0747 0.7002,-1.0503 0.4752,-0.225 0.7245,-0.4743 1.7001,-0.6507 1.8,-0.5751 0.9,-0.2745 0.9,-0.225 0.9,-0.2502 1.8,-0.5247 0.9,-0.3249 1.8,-0.8253 1.8,-0.8253 1.8,-0.6246 0.9,-0.2502 1.8,-0.6246 0.9,-0.4005 1.8,-0.8001 0.9,-0.3501 1.8,-0.6246 1.8,-0.6003 0.9,-0.2997 1.8,-0.6246 1.7748,-0.8505 1.5255,-1.3248 0.5499,-0.8253 0.5751,-1.7748 0.2745,-1.8 0.1503,-0.9 0.4248,-1.8 0.2502,-0.9 0.45,-1.8 0.1998,-0.9 0.2502,-0.9 0.1998,-0.9 0.2502,-0.9 0.1998,-0.9 0.45,-1.8 0.2502,-0.9 0.1998,-0.9 0.2502,-0.9 0.1998,-0.9 0.2502,-0.9 0.1998,-0.9 0.2502,-0.9 0.45,-1.8 0.1998,-0.9 0.2502,-0.9 0.4248,-1.8 0.1503,-0.8496 0.1746,-1.4004 0.0252,-1.35 -1.35,0.0252 -1.4004,0.1746 -0.8496,0.1755 -0.9,0.2493 -1.8,0.6255 -0.9,0.3753 -1.8,0.7245 -1.8,0.6498 -1.8,0.6003 -2.7,0.9 -4.5,1.5003 -4.5,1.4994 -8.1,2.7 -2.7,0.9 -0.9,0.3006 -1.8,0.6498 -1.8,0.7245 -0.9,0.3753 -0.9,0.3249 -0.9,0.3249 -1.8,0.6003 -1.8,0.6003 -0.9,0.2997 -1.8,0.5499 -0.9,0.225 -1.8,0.5247 -1.8,0.6507 -0.9,0.3501 -1.8,0.5247 -0.9,0.225 -1.8,0.5499 -0.9,0.2997 -2.7,0.9 -2.7,0.9 -0.9,0.3006 -1.8,0.6498 -0.9,0.3996 -0.9,0.3753 -1.7496,0.8253 -0.5004,0.2997 -1.35,0.45 -0.6003,-1.35 -0.2745,-0.5004 -0.6498,-1.7496 -0.1755,-0.9 -0.0747,-0.9 -0.0252,-1.8 v -0.9 -2.7 -10.8 -18 -2.7 -0.9 l 0.0252,-1.8 0.0495,-0.9 0.2754,-1.8 0.225,-0.9 0.1998,-0.9 0.2502,-0.9 0.225,-0.9 0.6498,-1.8 0.45,-0.9 0.5499,-0.9 1.2753,-1.8 0.675,-0.8748 0.7497,-0.8505 1.6254,-1.4499 0.8748,-0.5499 0.9,-0.5247 1.8,-0.8001 0.9,-0.3249 0.9,-0.3249 1.8,-0.6255 0.9,-0.3249 0.9,-0.3753 1.8,-0.7245 1.8,-0.6498 0.9,-0.3006 1.8,-0.5994 0.9,-0.3006 0.9,-0.3249 0.9,-0.3249 0.9,-0.3753 1.8,-0.7245 1.8,-0.7002 1.8,-0.7245 0.9,-0.3753 1.8,-0.7002 1.8,-0.7245 0.9,-0.3753 1.8,-0.6498 0.9,-0.3006 0.9,-0.3249 0.9,-0.3249 0.9,-0.3753 1.8,-0.7245 1.8,-0.7002 1.8,-0.7245 0.9,-0.3753 1.8,-0.7002 0.9,-0.3753 1.8,-0.7245 1.8,-0.7002 1.8,-0.7245 0.9,-0.3753 1.8,-0.6498 0.9,-0.3006 0.9,-0.3249 0.9,-0.3249 0.9,-0.3753 0.9,-0.3492 1.8,-0.7758 1.8,-0.8244 0.9,-0.4005 1.8,-0.6246 0.9,-0.2502 1.8,-0.6246 0.9,-0.4005 1.8,-0.8001 0.9,-0.3249 1.8,-0.5499 0.9,-0.2745 1.8,-0.6255 0.9,-0.3753 0.9,-0.3492 1.8,-0.7758 1.8,-0.8244 0.9,-0.4005 1.8,-0.6246 0.9,-0.2502 1.8,-0.6246 0.9,-0.4005 1.8,-0.8496 0.9,-0.4005 1.8,-0.6246 1.8,-0.5499 0.9,-0.3249 1.8,-0.7506 1.8,-0.6993 0.9,-0.3501 0.9,-0.4005 1.8,-0.8001 0.9,-0.3501 1.7748,-0.7245 0.8253,-0.4752 0.7002,-0.6003 0.5751,-0.7245 0.7992,-1.7001 0.8001,-1.8 0.5004,-0.9 0.9747,-1.8 0.7254,-1.8 0.1998,-0.8496 0.1998,-1.4004 0.0252,-1.35 -1.575,-0.6003 -0.4752,-0.1746 -0.6498,-1.0251 -1.35,-0.0747 -0.5004,-0.1251 -0.9,-0.1503 -1.7496,-0.45 -1.8,-0.6246 -0.9,-0.3753 -1.8,-0.6498 -0.9,-0.225 -1.8,-0.4005 -0.9,-0.2493 -1.8,-0.5751 -1.8,-0.675 -1.8,-0.8001 -0.9,-0.4005 -1.8,-0.6246 -0.9,-0.2502 -1.8,-0.6246 -0.9,-0.4005 -1.8,-0.8496 -0.9,-0.4005 -1.8,-0.675 -1.8,-0.5751 -0.9,-0.2745 -1.8,-0.5004 -0.9,-0.2493 -1.8,-0.7254 -0.9,-0.45 -1.8,-0.7749 -1.8,-0.6498 -0.9,-0.3006 -0.9,-0.2997 -1.8,-0.5499 -0.9,-0.2502 -1.8,-0.6246 -0.9,-0.4005 -1.8,-0.8001 -1.8,-0.675 -0.9,-0.2997 -0.9,-0.2997 -1.8,-0.6003 -1.8,-0.5499 -1.8,-0.5004 -0.9,-0.2493 -0.9,-0.3753 -0.9,-0.3501 -0.9,-0.45 -1.8,-0.7749 -0.9,-0.3249 -0.9,-0.3249 -0.9,-0.3006 -1.8,-0.5994 -0.9,-0.3006 -1.8,-0.6498 -1.8,-0.7245 -0.9,-0.3753 -0.9,-0.3249 -1.8,-0.6255 -0.9,-0.2997 -2.7,-0.9 -1.8,-0.6003 -0.9,-0.3249 -0.9,-0.3249 -0.9,-0.3753 -1.8,-0.7245 -1.8,-0.6498 -0.9,-0.3006 -1.8,-0.5994 -6.3,-2.1006 -1.8,-0.5994 -0.9,-0.3006 -0.9,-0.3249 -0.9,-0.3249 -1.8,-0.7245 -0.9,-0.3753 -1.8,-0.6498 -0.9,-0.3006 -1.8,-0.5994 -1.8,-0.6003 -0.9,-0.2754 -1.8,-0.3996 -0.9,-0.0747 -1.8,0.225 -1.8,0.5247 -0.9,0.2997 -1.8,0.6003 -1.8,0.6003 -1.8,0.6498 -0.9,0.3753 -1.8,0.7245 -0.9,0.3249 -0.9,0.3249 -1.8,0.6003 -2.7,0.9 -1.8,0.6003 -1.8,0.6498 -0.9,0.3753 -1.8,0.7245 -1.8,0.6498 -0.9,0.3006 -1.8,0.5994 -0.9,0.3006 -3.6,1.1997 -1.8,0.6003 -1.8,0.6498 -1.8,0.7245 -0.9,0.3753 -1.8,0.6498 -1.8,0.6003 -2.7,0.9 -1.8,0.6003 -1.8,0.6498 -1.8,0.7245 -0.9,0.3753 -1.8,0.6498 -0.9,0.3006 -1.8,0.5994 -1.8,0.6003 -2.7,0.9 -1.8,0.6003 -1.8,0.6498 -0.9,0.3753 -0.9,0.3492 -1.8,0.7002 -1.8,0.5751 -0.9,0.225 -0.9,0.2754 -0.9,0.2493 -0.9,0.3753 -0.9,0.3501 -0.9,0.45 -1.8,0.7749 -0.9,0.3249 -1.8,0.6255 -0.9,0.2997 -2.7,0.9 -1.8,0.6003 -1.8,0.6498 -1.8,0.7245 -0.9,0.3753 -1.8,0.6498 -0.9,0.3006 -1.8,0.6498 -0.9,0.3753 -1.8,0.675 -0.9,0.2493 -1.8,0.5499 -0.9,0.3501 -0.9,0.3249 -0.9,0.3753 -1.8,0.7002 -1.8,0.7245 -0.9,0.3753 c -0.8883,0.333 -1.7892,0.6345 -2.7,0.9 l -1.8,0.5004 -0.9,0.2493 -1.8,0.7254 -0.9,0.45 -0.9,0.3501 -0.9,0.3753 -0.9,0.2493 -1.8,0.5004 -0.9,0.2745 -0.9,0.2754 -1.8,0.6246 -0.9,0.3501 -1.8,0.8001 -0.9,0.4005 -1.8,0.6498 -0.9,0.2745 -1.8,0.7254 -0.9,0.45 -1.8,0.7749 -0.9,0.3249 -0.9,0.3249 -0.9,0.3006 -1.8,0.6498 -0.9,0.3753 -1.8,0.7245 -0.9,0.3249 -0.9,0.3249 -1.8,0.6003 -0.9,0.2754 -1.8,0.5247 -1.8,0.6246 -1.7496,0.7749 -0.9,0.45 -0.5004,0.2007 -1.35,0.7497"
     id="path1" />
</svg>
