<?xml version="1.0" standalone="yes"?>
<svg xmlns="http://www.w3.org/2000/svg" width="500" height="467" viewBox="0 0 500 467">
<path style="fill:#1671a5; stroke:none;" d="M117 115L117 121L118.5 121.083L119.056 121.222L120.056 121.389L121 121.611L123 121.917L124 121.972L125 122L127 122.028L128 122.083L130 122.389L131 122.611L133 122.917L134 122.972L136 123.083L138 123.389L139 123.611L141 123.917L142 123.972L144 124L145 124L147 124.083L149 124.389L150 124.611L152 124.917L154 125.028L155 125.083L156 125.25L157 125.472L159 126.278L160.917 127.472L162.528 129.083L163.139 130.028L163.722 131L164.528 133L164.917 135L164.972 136L165 137L165 139L165 140L165 143L165 174L165 281L165 309L165 313L165 315L164.972 317L164.917 318L164.583 320L164.278 321L163.361 323L161.889 324.889L160.972 325.694L159 326.889L158 327.278L157 327.583L155 328L153 328.389L151 328.806L149 329.194L148 329.389L147 329.611L146 329.806L144 330.194L143 330.389L142 330.611L140 331L138 331.417L136 332L134 332.611L132 333.139L130 333.611L128 333.944L127 334.056L125 334.389L124.056 334.611L123.056 334.778L122.5 334.917L121 335L121 342L122.5 342.444L123.056 342.667L125 343.333L126 343.667L127 344.028L128 344.389L129 344.806L131 345.611L133 346.333L134 346.667L137 347.667L146 350.667L148 351.333L149 351.667L151 352.389L153 353.194L154 353.611L155 353.972L156 354.333L157 354.667L159 355.333L160 355.667L162 356.389L164 357.194L165 357.611L166 357.972L168 358.667L169 359L172 360L174 360.667L175 361.028L176 361.389L177 361.806L179 362.611L181 363.333L182 363.667L184 364.333L185 364.667L186 365.028L187 365.389L188 365.806L190 366.611L192 367.333L193 367.667L195 368.333L199 369.667L201 370.333L203 371.028L204 371.389L206 372.194L207 372.611L208 372.972L209 373.333L210 373.667L212 374.333L213 374.667L214 375.028L215 375.389L217 376.194L218 376.611L219 376.972L220 377.333L222 378L224 378.667L226 379.333L228 380L229 380.306L229.944 380.583L230.944 380.778L231.5 380.917L233 381L233 362L231.5 361L230.944 360.778L229.944 360.194L229 359.778L228 359.222L227 358.778L225 357.778L224 357.222L223 356.778L222 356.222L221 355.75L219 354.528L218 353.75L216.028 351.972L215.083 351L213.5 349L212.472 347L212.167 346L211.639 344L211.389 343L211.083 341L211.028 340L211 339L211 337L211 336L211 334L211 329L211 296L211 180L211 140L211 133L211 131L211 130L211 128L211.028 127L211.083 126L211.472 124L211.861 123L212.278 122L212.861 121L213.472 120L215.083 118.028L217 116.306L219 115.083L220 114.639L221 114.167L222 113.75L223 113.25L225 112.389L227 111.611L229 110.806L230 110.389L232 109.611L234 108.806L235 108.389L237 107.611L238 107.194L240 106.389L242 105.611L244 104.75L245 104.25L247 103.389L249 102.611L251 101.806L252 101.389L254 100.611L256 99.8055L257 99.3889L259 98.6111L260 98.1945L261 97.8055L262.972 96.9167L263.889 96.3611L264.667 95.6945L265.278 94.8889L265.889 93L265.972 92L266 90.0555L266 88L268 88L268 96L269.5 96.4445L270.056 96.6667L271.056 97L272 97.3333L273 97.6667L275 98.3889L276 98.8055L278 99.6111L279 99.9722L280 100.333L281 100.667L283 101.333L284 101.667L285 102.028L286 102.389L287 102.806L289 103.611L291 104.389L293 105.194L294 105.611L295 105.972L296 106.333L297 106.667L299 107.333L300 107.667L301 108.028L302 108.389L304 109.194L305 109.611L307 110.333L308 110.667L308.944 111L309.944 111.333L310.5 111.556L312 112L310.5 113.167L309.944 113.417L308.944 113.972L308 114.361L307 114.806L306 115.194L305 115.611L303 116.389L301 117.194L300 117.611L298 118.389L297 118.806L295 119.611L293 120.389L291 121.25L290 121.75L288 122.611L286 123.389L284 124.194L283 124.611L281 125.333L280 125.667L279 126.028L278 126.389L276 127.25L275 127.75L273 128.611L271 129.389L269 130.194L268 130.611L266 131.389L265 131.806L263 132.611L261 133.389L260 133.806L258 134.611L256 135.389L254 136.194L253 136.611L251 137.389L250 137.806L248 138.611L246 139.389L245 139.806L243 140.611L241.083 141.417L239.417 142.5L238.722 143.25L237.639 145.028L237.111 147L237.028 148L237 150L237 151L237 153L237 158L237 187L237 288L237 319L237 324L237 326L237.083 328L237.5 330L237.944 330.972L238.5 331.889L240.083 333.278L242 333.861L243 333.889L245 333.583L247 333L248 332.667L250 331.972L251 331.611L252 331.194L254 330.389L256 329.667L257 329.333L259 328.667L260 328.333L262 327.611L263.944 326.778L265.5 326L267 325L267 273L267 264L267 262L267 261L267.083 259L267.222 258L267.417 257L267.694 256L268.389 254L268.833 253L269.278 252L270.472 250L271.25 249L273.028 247.083L274 246.25L275 245.472L277 244.278L279 243.389L281 242.611L282 242.194L284 241.389L286 240.611L288 239.806L289 239.389L291 238.611L292 238.194L294 237.389L296 236.611L298 235.75L299 235.25L301 234.389L302 234.028L303 233.667L304 233.333L306 232.611L307 232.194L309 231.389L311 230.611L313 229.806L314 229.389L316 228.611L317 228.194L319 227.389L321 226.611L322 226.194L324 225.389L325 225L326 224.611L328 223.722L328.972 223.139L330.667 221.75L331.278 220.917L331.694 219.972L332.194 218L332.389 217L332.611 216L333 214L333.417 212L333.694 211L334.306 209L334.611 208L335.139 206L335.361 205L335.639 204L335.861 203L336.139 202L336.639 200L336.861 199L337.389 197L337.694 196L338.306 194L338.722 192.056L338.667 191.056L338.694 190.5L338 189L336.5 189.278L335.944 189.472L334 190.194L333 190.611L331 191.389L329 192.194L328 192.611L326 193.333L325 193.667L323 194.333L322 194.667L321 195.028L320 195.389L319 195.806L317 196.611L315 197.389L313 198.194L312 198.611L311 198.972L310 199.333L309 199.667L307 200.333L306 200.667L305 201.028L304 201.389L302 202.194L301 202.611L299 203.333L298 203.667L296 204.389L295 204.806L293 205.611L292 205.972L291 206.333L290 206.667L288 207.333L287 207.667L285 208.389L283 209.194L282 209.611L280 210.333L279 210.667L278 211.028L277 211.389L275 212.194L274 212.611L272 213.306L271.056 213.583L269.5 213.917L268 214L267 213L267 174L267 170L267 168L267 166L267.028 165L267.25 163L267.472 162L268.25 160L268.778 159L269.861 157L270.472 156L272.083 154.028L273.028 153.083L275 151.472L276 150.861L277 150.278L279 149.389L281 148.611L283 147.75L284 147.25L286 146.389L288 145.611L290 144.75L291 144.25L293 143.389L295 142.611L297 141.806L298 141.389L300 140.611L302 139.75L303 139.25L305 138.389L307 137.611L309 136.75L310 136.25L312 135.389L314 134.611L316 133.806L317 133.389L319 132.611L320 132.194L322 131.389L324 130.611L326 129.75L327 129.25L329 128.389L331 127.611L332 127.194L334 126.389L336 125.611L338 124.75L339 124.25L341 123.389L343 122.611L344 122.194L346 121.389L348 120.611L350 119.75L351 119.25L353 118.389L355 117.611L356 117.194L358 116.389L360 115.611L362 114.75L363 114.25L365 113.389L367 112.611L368 112.194L370 111.389L372 110.611L372.972 110.167L374.75 109.139L375.528 108.528L376.139 107.75L377.222 105.972L377.75 105L378.528 103L378.75 102.056L378.972 100.5L379 99L377.5 98.1944L376.944 98L375 97.1945L374 96.8055L373 96.3889L371 95.6667L370 95.3333L369 94.9722L368 94.6111L366 93.8055L365 93.3889L363 92.6667L362 92.3333L360 91.6111L359 91.1945L357 90.3889L355 89.6111L353 88.8055L352 88.3889L350 87.6667L349 87.3333L348 86.9722L347 86.6111L345 85.8055L344 85.3889L342 84.6667L341 84.3333L339 83.6111L338 83.1945L336 82.3889L334 81.6667L333 81.3333L331 80.6111L330 80.1945L328 79.3889L327 79.0278L326 78.6667L325 78.3333L323 77.6111L321 76.8055L320 76.3889L318 75.6667L317 75.3333L315 74.6111L314 74.1945L312 73.3889L310 72.6667L309 72.3333L307 71.6111L305 70.8055L304 70.3889L302 69.6111L301 69.1945L299 68.3889L297 67.6111L295 66.8055L294 66.3889L293 66.0278L292 65.6667L291 65.3333L289 64.6667L288 64.3333L286 63.6111L285 63.1945L283 62.3889L281 61.6111L279 60.8055L278 60.3889L276 59.6667L275 59.3333L273 58.6111L271 57.8333L270 57.4722L268 57.0833L267 57.0555L266 57.0833L264 57.4167L262 58.0278L261 58.3889L260 58.8055L258 59.6111L256 60.3889L254 61.1945L253 61.6111L251 62.3889L250 62.8055L248 63.6111L246 64.3889L245 64.8055L243 65.6111L241 66.3889L239 67.1945L238 67.6111L237 67.9722L236 68.3333L235 68.6667L233 69.3889L232 69.8055L230 70.6111L228 71.3889L227 71.8055L225 72.6111L223 73.3889L221 74.1945L220 74.6111L219 74.9722L218 75.3333L217 75.6667L215 76.3889L214 76.8055L212 77.6111L210 78.3889L209 78.8055L207 79.6111L205 80.3889L203 81.1945L202 81.6111L201 81.9722L200 82.3333L199 82.6667L197 83.3889L196 83.8055L194 84.6111L192 85.3889L190 86.1945L189 86.6111L187 87.3889L186 87.8055L184 88.6111L182 89.3889L180 90.1945L179 90.6111L178 90.9722L177 91.3333L176 91.6667L174 92.3889L173 92.8055L171 93.6111L169 94.3889L167 95.1945L166 95.6111L165 95.9722L164 96.3333L163 96.6667L161 97.3889L160 97.8055L158 98.6111L156 99.3889L155 99.8055L153 100.611L151 101.389L150 101.806L148 102.611L146 103.389L144 104.194L143 104.611L141 105.389L139 106.194L138 106.611L137 106.972L136 107.333L135 107.667L133 108.389L132 108.806L130 109.611L128 110.389L127 110.806L125 111.611L123 112.389L122 112.806L121 113.194L119.056 114L118.5 114.194L117 115M233 349L233.361 350.5L234.333 352.056L235.111 353L236.028 354L238 356L240 358L241 359L243 360.917L244.889 362.556L245.694 363.333L246.222 363.75L247 365L242 365L242 383L243.5 383L244.056 382.972L246 382.778L247 382.583L249 382L251 381.333L253 380.611L254 380.194L256 379.389L258 378.611L260 377.806L261 377.389L262 377.028L264 376.333L266 375.667L267 375.333L268 374.972L269 374.611L270 374.194L272 373.389L274 372.611L276 371.806L277 371.389L278 371.028L280 370.333L281 370L284 369L286 368.333L288 367.611L290 366.806L291 366.389L292 366.028L293 365.667L294 365.333L296 364.611L297 364.194L299 363.389L301 362.667L302 362.333L304 361.667L305 361.333L307 360.611L308 360.194L309 359.806L310.944 359L311.5 358.806L313 358L313 352L311.5 351.75L310.944 351.583L309.944 351.306L308 350.667L307 350.333L305 349.667L303 349L301 348.389L299 347.861L298 347.611L296 347L294 346.333L291 345.333L282 342.333L277 340.667L275 340L274 339.667L273 339.333L271 338.694L270 338.417L268 338.167L267 338.25L266 338.417L264 339L263 339.333L261 340L260 340.306L259 340.611L257 341.139L256 341.389L254 342L253 342.333L250 343.333L247 344.333L246 344.667L244 345.389L242 346.167L241 346.556L239 347.139L238 347.389L237 347.694L235.056 348.333L234.5 348.556L233 349z"/>
</svg>
